<svg width="267" height="355" viewBox="0 0 267 355" fill="none" xmlns="http://www.w3.org/2000/svg">
<path d="M199.537 177.367H66.5125V221.708H199.537V177.367ZM261.2 72.748L193.371 4.84987C190.253 1.7321 186.027 0 181.593 0H177.367V88.6833H266.05V84.457C266.05 80.0921 264.318 75.8658 261.2 72.748ZM155.196 94.226V0H16.6281C7.41337 0 0 7.41337 0 16.6281V338.105C0 347.32 7.41337 354.733 16.6281 354.733H249.422C258.637 354.733 266.05 347.32 266.05 338.105V110.854H171.824C162.678 110.854 155.196 103.371 155.196 94.226ZM44.3416 49.8844C44.3416 46.822 46.822 44.3416 49.8844 44.3416H105.311C108.374 44.3416 110.854 46.822 110.854 49.8844V60.9698C110.854 64.0321 108.374 66.5125 105.311 66.5125H49.8844C46.822 66.5125 44.3416 64.0321 44.3416 60.9698V49.8844ZM44.3416 94.226C44.3416 91.1637 46.822 88.6833 49.8844 88.6833H105.311C108.374 88.6833 110.854 91.1637 110.854 94.226V105.311C110.854 108.374 108.374 110.854 105.311 110.854H49.8844C46.822 110.854 44.3416 108.374 44.3416 105.311V94.226ZM221.708 304.849C221.708 307.911 219.228 310.392 216.166 310.392H160.738C157.676 310.392 155.196 307.911 155.196 304.849V293.763C155.196 290.701 157.676 288.221 160.738 288.221H216.166C219.228 288.221 221.708 290.701 221.708 293.763V304.849ZM221.708 166.281V232.794C221.708 238.918 216.748 243.879 210.623 243.879H55.4271C49.3024 243.879 44.3416 238.918 44.3416 232.794V166.281C44.3416 160.156 49.3024 155.196 55.4271 155.196H210.623C216.748 155.196 221.708 160.156 221.708 166.281Z" fill="white"/>
</svg>
